# xmcd
#
# Track frame offsets: 
#        150
#        13847
#        31410
#        47948
#        62749
#        78324
#        91392
#        114117
#        118651
#        136806
#        151058
#        158815
#        171529
#
# Disc length: 2396 seconds
#
# Revision: 0
# Processed by: cddbd v1.4PL0 Copyright (c) Steve Scherf et al.
# Submitted via: ExactAudioCopy v0.90b4
#
DISCID=a1095a0d
DTITLE=Flip de Fleurquin - a decent job
DYEAR=2000
DGENRE=Blues
TTITLE0=Coming Home
TTITLE1=Imagenary Journey
TTITLE2=Doctor Josy
TTITLE3=The Peacock
TTITLE4=Sweet Magnolia
TTITLE5=A New Red Dress
TTITLE6=The Flame and the Arrow
TTITLE7=Cold Days
TTITLE8=Charms of Country Life
TTITLE9=A Decent Job (So Long Henry)
TTITLE10=Songs and Stories
TTITLE11=Rain
TTITLE12=Walking My Baby Back Home
EXTD=
EXTT0=
EXTT1=
EXTT2=
EXTT3=
EXTT4=
EXTT5=
EXTT6=
EXTT7=
EXTT8=
EXTT9=
EXTT10=
EXTT11=
EXTT12=
PLAYORDER=
